<?xml version="1.0" standalone="no"?><!DOCTYPE svg PUBLIC "-//W3C//DTD SVG 1.1//EN" "http://www.w3.org/Graphics/SVG/1.1/DTD/svg11.dtd">
<svg t="1731373747198" class="icon" viewBox="0 0 1024 1024" version="1.1" xmlns="http://www.w3.org/2000/svg" p-id="5168" width="32" height="32"><path d="M612.10109375 132.82260414q-15.04125-30.09234375-40.831875-49.966875-25.790625-19.884375-58.02890625-29.5509375-27.9365625-7.520625-39.22734375 6.4575-11.2809375 13.978125-7.520625 39.2175 3.7603125 25.24921875 22.57171875 38.14453125 18.81140625 12.8953125 32.7796875 32.23828125l-12.8953125 118.21359375-49.42546875 45.13359375h-4.30171875q-10.749375-29.019375-13.96828125-32.23828125-3.22875-3.22875-29.019375-27.9365625l-64.4765625-25.790625H335.403125q-1.614375 0-6.44765625 2.15578125t-4.83328125 8.59359375q0 6.44765625 1.07296875 1.07296875t9.6665625 20.4159375q4.30171875 12.8953125 5.90625 31.70671875t0 32.7796875q-1.60453125 13.96828125-3.7603125 27.9365625t-6.9890625 28.47796875q-4.83328125 14.5096875-12.8953125 27.9365625-8.06203125 13.426875-14.5096875 27.405-9.6665625 29.00953125 4.843125 59.101875 14.49984375 30.0825 40.29046875 44.060625 8.6034375 4.291875 17.72859375 0 9.135-4.30171875 16.66546875-8.6034375l83.81953125-85.96546875q4.291875 0 10.73953125 13.43671875 6.44765625 13.426875 25.24921875 26.33203125 18.81140625 12.8953125 97.25625-9.6665625v23.10328125q0 23.10328125-59.64328125 69.30984375-59.6334375 46.2065625-88.6528125 64.4765625-5.3746875 2.1459375-11.82234375 3.21890625-6.44765625 1.07296875-11.8125 3.22875-17.19703125 8.59359375-25.790625 28.468125-8.6034375 19.87453125-10.749375 38.14453125-2.1459375 10.749375 0 25.790625t15.04125 19.34296875q32.23828125 4.30171875 55.3415625-16.1240625t65.01796875-20.42578125q22.561875 4.30171875 37.61296875 25.2590625 15.04125 20.95734375 37.603125 30.62390625 29.019375 8.59359375 62.87203125 6.9890625 33.8428125-1.60453125 61.78921875-6.9890625 47.27953125-5.3746875 96.1734375-32.23828125t4.83328125-79.5178125l-141.8484375-94.56890625q-10.73953125 2.1459375-10.73953125 3.7603125 0 1.614375-0.54140625 4.30171875-0.5315625 2.68734375 0.54140625 4.83328125 5.3746875 7.520625 12.36375 13.96828125 6.97921875 6.44765625 13.426875 13.96828125 12.8953125 17.19703125 18.81140625 29.019375 5.90625 11.82234375 13.426875 31.1653125l-4.30171875 6.44765625q-55.88296875 13.96828125-89.735625 14.49984375-33.8428125 0.54140625-80.049375-35.99859375 42.9778125-38.6859375 87.0384375-82.7465625 44.060625-44.05078125 69.85125-97.77796875 10.749375-26.8734375-1.07296875-52.12265625-11.82234375-25.24921875-41.9146875-31.696875-15.04125-2.15578125-30.62390625-2.6971875-15.58265625-0.54140625-31.70671875 0.54140625-16.1240625 1.07296875-31.696875 3.7603125-15.58265625 2.68734375-30.63375 4.843125 1.07296875-17.19703125 1.614375-19.3528125 0.54140625-2.15578125 6.9890625-15.04125l26.33203125-26.33203125q13.43671875-13.426875 27.405-25.24921875 31.1653125-24.71765625 64.4765625-45.13359375 17.1871875-9.6665625 32.23828125-15.5728125 15.04125-5.90625 25.80046875-20.9475 12.8953125-19.34296875 13.96828125-48.36234375 1.07296875-29.019375-20.4159375-44.07046875-7.520625-4.291875-16.655625-5.90625-9.135-1.614375-17.7384375-2.68734375-19.34296875-3.21890625-39.22734375-4.83328125-19.884375-1.614375-40.29046875-3.7603125z m-554.4984375 70.92421875q19.34296875 29.00953125 35.46703125 56.41453125 16.1240625 27.405 26.86359375 59.64328125l-85.96546875 51.58125q-7.520625 7.520625-16.1240625 16.11421875-8.59359375 8.59359375-9.6665625 20.4159375-2.15578125 39.75890625 22.0303125 69.85125 24.17625 30.09234375 61.78921875 41.9146875 8.59359375 2.1459375 17.19703125 2.68734375 8.59359375 0.54140625 17.19703125 1.60453125-3.21890625 45.13359375-14.49984375 77.371875-11.29078125 32.23828125 12.35390625 77.371875 6.44765625 11.82234375 17.19703125 24.18609375 10.73953125 12.35390625 21.48890625 20.9475 13.96828125 8.59359375 30.0825 15.04125 16.1240625 6.44765625 21.49875 21.49875 2.1459375 19.34296875-17.7384375 27.405-19.87453125 8.0521875-33.8428125 11.2809375H96.2984375l-6.44765625 4.291875q1.0828125 23.6446875 12.36375 51.0496875T139.28609375 889.35416664q6.44765625 1.07296875 13.426875 0.54140625 6.97921875-0.54140625 14.5096875-0.54140625 88.12125-21.49875 117.6721875-26.8734375 29.5509375-5.36484375 114.4434375 1.0828125 95.641875 10.73953125 184.83609375 47.8209375 89.19421875 37.0715625 183.75328125 53.18578125 51.58125 4.30171875 109.61015625-13.96828125 58.02890625-18.27 104.23546875-35.4571875 24.71765625-16.1240625 27.405-17.7384375 2.68734375-1.60453125 5.90625-11.2809375 3.21890625-9.6665625-4.83328125-21.48890625-8.06203125-11.82234375-13.426875-11.82234375-5.3746875 0-49.4353125-8.59359375-64.4765625 1.07296875-127.33875 3.21890625-62.8621875 2.15578125-128.4215625-1.07296875-66.6225-5.3746875-137.01515625-20.4159375-70.3828125-15.04125-133.7765625-26.86359375-46.21640625-7.520625-74.694375-9.67640625-28.47796875-2.1459375-69.3196875-3.21890625-8.59359375-32.23828125-13.96828125-50.50828125-5.3746875-18.27-24.71765625-44.060625-17.1871875-21.48890625-41.90484375-38.6859375t-35.46703125-34.38421875q-5.36484375-23.6446875 30.63375-54.26859375 35.99859375-30.62390625 18.8015625-74.68453125-20.4159375-34.38421875-50.50828125-41.90484375-30.0825-7.520625-65.54953125-9.6665625-12.8953125-1.07296875-34.925625-6.9890625-22.0303125-5.90625-29.5509375-20.9475-3.21890625-17.19703125 12.35390625-27.9365625 15.58265625-10.749375 103.6940625-34.3940625 7.520625 0 28.47796875 4.291875 20.95734375 4.30171875 38.14453125-4.291875 31.1653125-23.6446875 20.4159375-57.49734375-10.73953125-33.8428125-44.05078125-47.81109375-11.82234375-4.30171875-23.6446875-6.9890625-11.82234375-2.68734375-23.6446875-5.90625-17.1871875-5.3746875-34.38421875-12.36375-17.19703125-6.97921875-34.38421875-13.43671875H57.5928125z" fill="#FF673E" p-id="5169"></path></svg>
